<svg id="visual" viewBox="0 0 900 600" width="900" height="600" xmlns="http://www.w3.org/2000/svg" xmlns:xlink="http://www.w3.org/1999/xlink" version="1.1"><rect x="0" y="0" width="900" height="600" fill="#002233"></rect><path d="M0 442L21.5 442.3C43 442.7 86 443.3 128.8 449.7C171.7 456 214.3 468 257.2 471.7C300 475.3 343 470.7 385.8 459.3C428.7 448 471.3 430 514.2 415.5C557 401 600 390 642.8 385.7C685.7 381.3 728.3 383.7 771.2 403.3C814 423 857 460 878.5 478.5L900 497L900 601L878.5 601C857 601 814 601 771.2 601C728.3 601 685.7 601 642.8 601C600 601 557 601 514.2 601C471.3 601 428.7 601 385.8 601C343 601 300 601 257.2 601C214.3 601 171.7 601 128.8 601C86 601 43 601 21.5 601L0 601Z" fill="#0066FF" stroke-linecap="round" stroke-linejoin="miter"></path></svg>